M48
;Layer_Color=9474304
;FILE_FORMAT=2:5
INCH,TZ
;TYPE=PLATED
T1F00S00C0.00984
T2F00S00C0.02362
T3F00S00C0.02756
T4F00S00C0.03150
T5F00S00C0.03543
T6F00S00C0.06299
;TYPE=NON_PLATED
T7F00S00C0.12795
%
T01
X96744Y28689
Y33807
Y38925
X106193Y41484
Y36366
Y31248
X131147Y44043
X146592Y40992
Y33020
Y25047
Y14370
X149858Y14036
X155115
X160447Y25295
Y33268
Y41240
Y49216
X146592Y48968
X179345Y46005
X180065Y39854
X194783Y52421
Y27165
X215650Y28154
X255593Y31644
X255593Y37451
X261024Y41043
X275736
X290449
X341485Y39862
X453051Y107572
X450500Y115203
X459842Y115759
X455315Y126673
X450500Y138136
X453051Y143737
X457923Y141530
X462066
X459842Y151925
X450500Y151369
X438532Y152221
Y148535
Y155906
X434694Y140652
X455315Y162836
X450500Y174302
X453051Y179903
X457923Y177696
X462066
X459842Y188091
X450500Y187535
X438532Y186665
Y190351
Y182980
X455315Y199002
X491835Y194909
Y205324
Y169005
Y158177
X504450Y154303
X515625Y152838
X491835Y133139
Y122312
X419817Y124209
Y129721
Y160346
Y165945
Y196448
Y202000
X389494Y196350
X392979Y190457
X389494Y160185
X392979Y154292
X389494Y124020
X392979Y118701
X353934Y120180
Y116243
Y130022
X338531Y127617
X338484Y122598
X335938Y125134
Y130252
X338531Y132735
Y137775
X335938Y135370
Y140489
X338484Y158764
X353934Y156345
Y152408
Y166188
Y188574
X353970Y192510
X353934Y202353
X338484Y194929
X316368Y162178
X318347Y146029
X313275Y132735
Y127617
X305623Y125210
Y130329
X305702Y134415
X305405Y137262
X296354Y125614
X281642Y125254
X277382Y134978
X275736Y111909
X290449
X296354Y101928
X281642
X275736Y88287
X290449
X295965Y80146
X281200Y77515
X275736Y64665
X290449
X296262Y54421
X281233Y53764
X341485Y58337
Y63484
Y74113
X338531Y80610
X341485Y90256
X333465Y102756
X330171Y102417
X331102Y106079
X327634
X329626Y109350
X324610Y111282
X261024Y111909
X255593Y110880
Y117278
X266929Y125550
Y101928
X260348Y87907
X255593Y85094
Y91197
X266929Y78306
X261024Y64665
X255593Y64735
Y58337
X267110Y55725
X194783Y77547
X180065Y71268
Y65024
X160447Y65165
Y57189
X146592Y56941
Y64917
Y74279
Y82252
Y90228
Y98201
Y106173
Y114150
X134047Y113572
X131148Y92864
X134047Y65312
X160447Y74528
Y82500
Y90476
Y98449
Y106421
Y114398
X179524Y115240
Y121236
X179824Y96390
Y90114
X194783Y102677
X215650Y113591
X228323Y149854
X226062Y152506
X234154Y149854
X237781Y159089
X229262Y163326
X226062Y165644
X229144Y174551
X220645Y175643
X237781Y172227
X236733Y187578
X229262Y189538
X225683Y192014
X227581Y202405
X226062Y205058
X237604Y198503
X248189Y135370
X183905Y152547
X183753Y156312
X173228Y164429
Y169429
Y174429
X126173Y197646
X126131Y200933
Y204220
Y207507
X107008Y207526
Y204240
Y200953
X107050Y197666
X108167Y191271
X104595
X113535
X113552Y181458
X110233Y181424
X111909Y169429
Y158983
X108658
X99311Y161183
Y164569
Y167611
X91798Y188250
X70460Y188676
X69911Y191870
X72773Y192192
X69911Y183439
X59252Y190261
X50187Y191835
X32486Y192032
X15558Y193012
X11811Y183439
X-3347
X780Y193012
X-18458Y195669
Y183439
X-14650Y161024
X-18458Y151155
X-3347Y151450
X461Y161024
X15807Y159967
X11811Y151155
X15392Y125949
X11811Y119462
X-3347
X461Y129331
X-14650Y129035
X-18458Y119462
X-11855Y103305
X52591Y102461
X89798Y107723
X89928Y96622
X96744Y87646
Y82528
Y77409
X89830Y74546
Y62528
X106193Y79969
Y85087
Y90205
X110803Y147756
X77055Y148566
Y152503
X75055Y158408
X74638Y162345
X58071Y164311
Y160374
Y156437
Y150531
Y146595
X57276Y142657
X77239Y140692
Y144629
X77230Y220276
Y224213
Y228150
Y232087
Y236024
Y241929
Y245866
Y249803
Y253740
Y257677
Y263583
Y267520
Y271457
X86614Y273357
Y269488
Y265551
Y261614
Y255709
Y251772
X86510Y247939
X86614Y243898
Y239961
Y234055
Y230118
Y226181
Y222244
X96344Y235115
X94501Y239013
X98294Y238993
X108689Y238678
X111807Y238647
X110332Y252073
X111621Y261629
X110403Y271419
X113552
X107185Y273413
X103448Y273695
X96425Y294750
X87380Y294820
X86573Y291089
X72609Y286614
X62967Y290096
X53325Y290392
X44007Y285696
X43898Y295884
Y299164
Y302445
Y305726
X39961
Y302445
Y299164
Y295884
X39961Y310335
Y313615
Y316896
Y320177
X43898
Y316896
Y313615
Y310335
X49311Y301092
X59018Y301323
X68659
X78301
X77142Y312557
X86783
X77771Y322543
X58669Y322327
X53260Y315809
X66658Y313399
X98101Y321941
X11024Y320752
Y317471
Y314190
Y310909
X7087
Y314190
Y317471
Y320752
X7088Y325583
Y328864
X7087Y331965
X7088Y335425
X11025
Y332144
Y328864
Y325583
X11024Y306301
Y303020
Y299739
Y296458
X7087
Y299739
Y303020
Y306301
X46869Y276055
X58071Y269488
Y265551
Y261614
Y255709
Y251772
Y247835
X56628Y243898
Y236024
Y232087
Y228150
Y224213
Y220276
X47703Y222244
Y226181
Y230118
Y234055
Y239961
X47410Y242933
X47703Y245866
X107008Y210813
X-31693Y261382
X-35138
X-38386
Y267681
X-35138
X-31707
X-31693Y274114
X-35138
X-38386
X122666Y278740
X118783Y265170
X118141Y242647
X126131Y222933
Y210794
X184223Y229788
X184071Y233553
X173228Y241024
Y246024
Y251024
X181621Y266561
X188522Y271161
X188453Y277823
X179978Y281496
X167520Y279528
X163583
X159646
X155709
X157677Y288583
X161614
X165551
X168825
X168264Y273357
X153740Y268120
X152756Y291732
Y295669
Y305549
Y309466
X155709Y312298
X159646
X169488
X173495
X171457Y321471
X157677
X153740
X143701Y311417
Y307480
X143366Y303819
X143504Y296840
X143701Y293701
Y289764
X136221Y289272
X129046Y296004
X133101Y300598
X115966Y323496
X116831Y347539
Y353653
X126895Y350157
X133101
X139370Y346655
Y340848
Y335042
X145015Y340478
X139370Y358268
Y362426
X129998Y363895
X166418Y334267
X192520Y332772
X208866Y337936
X214462Y353653
X216574Y321341
X209200Y312298
X206299Y300590
X191142Y297909
X187697
Y303815
X191142Y303819
Y292004
X188031Y290323
X196847Y261629
Y257980
X208421Y258049
X207834Y229689
X226149Y219882
X227345Y215453
X237604Y211713
X246788Y246024
X268701Y253543
X268486Y312373
X264037
X246226Y331750
X244986Y342588
X246788Y345252
X287918Y351861
X310213Y364378
X338583Y346893
X340699Y319329
X321812
X323316Y312587
X317618Y312992
X287918Y312402
X299705Y293507
X295472Y271960
Y268735
Y265628
X292166Y265627
Y268734
Y271959
X288861
Y268734
Y265627
X291437Y249508
X313775Y243203
X320385Y243206
X323044Y267584
X326485Y268402
X309367Y267584
X339525Y227685
X353934Y229542
Y225605
Y239385
X389494Y233382
X392979Y226958
X419817Y233601
Y239507
X417446Y270627
X393137Y265963
X383091Y273067
Y278185
Y290981
X395875Y321061
Y335476
X395847Y349413
Y363586
X376857Y356888
Y342916
X376886Y328699
X416081Y323855
X428027Y337365
Y342365
Y347530
X428027Y352368
X345618Y301465
X428625Y299137
Y294218
Y289137
Y284386
X442089Y278991
X442020Y274137
X447115Y274457
X467115Y275559
X462115Y250618
X457972
X450500Y246634
X455315Y234941
X459842Y224256
X450500Y223701
X453051Y216069
X457972Y214452
X462115
X450500Y210468
X438532Y222837
Y226523
Y230208
X434694Y249150
X491835Y240516
Y231311
X499311Y260451
Y265963
X499249Y271573
X498290Y276495
X503688
X508946
Y294988
X503596
X498338
X499606Y306492
X499584Y311658
X499544Y317685
X498338Y321952
X503688
X508946
Y340446
X503596
X498338
X494582Y331199
X466514Y328748
X446475Y328271
X441634Y327287
Y332287
X447155Y307384
X462115Y305902
X472115
X476957Y305251
X481957
X494783Y285572
X481514Y358753
X476514Y358746
X471514Y359554
X461514
X446514Y360331
X376857Y370961
X340699Y367331
X321812
X290453Y366043
X286040Y367666
X176141Y371121
X169351Y365787
X13989Y369314
X10411
X6832
X3254
T02
X134370Y143642
X144370
X154370
X164370
X114370
X104370
Y221161
X114370
X134370
X144370
X154370
X164370
T03
X10335Y50748
X20335
X30335
X40335
X50335
X60335
X318186Y45433
Y35433
X348186
Y45433
X370575
Y35433
X400575
Y45433
X422965
Y35433
X452965
Y45433
X475354
Y35433
X505354
Y45433
Y55433
Y65433
Y75433
Y85433
X475354
Y75433
Y65433
Y55433
X452965
Y65433
Y75433
Y85433
X422965
Y75433
Y65433
Y55433
X400575
Y65433
Y75433
Y85433
X370575
Y75433
Y65433
Y55433
X348186
Y65433
Y75433
Y85433
X318186
Y75433
Y65433
Y55433
X60335Y80748
X50335
X40335
X30335
X20335
X10335
X49311Y332426
X59311
X69311
X79311
X89311
X99311
Y362426
X89311
X79311
X69311
X59311
X49311
T04
X531632Y190276
Y198307
Y206339
X538640Y202323
Y194291
Y210354
Y218386
X531632Y214370
T05
X10492Y18701
Y28701
X20492
Y18701
X30492
Y28701
X40492
Y18701
X50492
Y28701
X60492
Y18701
X522229Y27882
X532229
Y37882
Y47882
X522229
Y37882
Y57882
X532229
Y75001
Y85000
Y95000
Y105000
X522229
Y95000
Y85000
Y75001
Y122441
Y132441
X532229
Y122441
X532243Y146260
Y156260
X33622Y157756
Y147756
Y137756
Y127756
Y117756
Y107756
X23622
Y117756
Y127756
Y137756
Y147756
Y157756
Y167756
X33622
Y177756
X23622
Y212933
Y222933
Y232933
Y242933
Y252933
Y262933
Y272933
Y282933
X33622
Y272933
Y262933
Y252933
Y242933
Y232933
Y222933
Y212933
X522229Y252343
X532229
Y262343
Y272342
Y282343
X522229
Y272342
Y262343
Y299331
X532229
Y309331
Y319331
Y329331
X522229
Y319331
Y309331
Y346016
X532229
Y356016
X522229
Y366016
X532229
T06
X535136Y172343
Y236319
T07
X548640Y179331
Y229331
M30
