G04*
G04 #@! TF.GenerationSoftware,Altium Limited,Altium Designer,21.1.1 (26)*
G04*
G04 Layer_Color=16711935*
%FSLAX25Y25*%
%MOIN*%
G70*
G04*
G04 #@! TF.SameCoordinates,6E07179A-5F3D-4519-8887-A0F6EE2C59F2*
G04*
G04*
G04 #@! TF.FilePolarity,Negative*
G04*
G01*
G75*
%ADD98R,0.11417X0.02559*%
%ADD99C,0.05524*%
%ADD100R,0.05524X0.05524*%
%ADD101C,0.06800*%
%ADD102C,0.07887*%
%ADD103C,0.06706*%
%ADD104R,0.06706X0.06706*%
%ADD105R,0.06706X0.06706*%
%ADD106R,0.05918X0.05918*%
%ADD107C,0.05918*%
%ADD108C,0.13595*%
%ADD109C,0.10249*%
%ADD110C,0.03162*%
%ADD136C,0.04737*%
D98*
X-47847Y113350D02*
D03*
Y116500D02*
D03*
Y119650D02*
D03*
Y122799D02*
D03*
Y125949D02*
D03*
Y129098D02*
D03*
Y132248D02*
D03*
Y135398D02*
D03*
Y138547D02*
D03*
Y141697D02*
D03*
Y144846D02*
D03*
Y147996D02*
D03*
Y151146D02*
D03*
Y154295D02*
D03*
Y157445D02*
D03*
Y160594D02*
D03*
Y163744D02*
D03*
Y166894D02*
D03*
Y170043D02*
D03*
Y173193D02*
D03*
Y176342D02*
D03*
Y179492D02*
D03*
Y182642D02*
D03*
Y198390D02*
D03*
Y201539D02*
D03*
Y204689D02*
D03*
Y207839D02*
D03*
Y210988D02*
D03*
Y214138D02*
D03*
Y217287D02*
D03*
Y220437D02*
D03*
Y223587D02*
D03*
Y226736D02*
D03*
Y229886D02*
D03*
Y233035D02*
D03*
Y236185D02*
D03*
Y239335D02*
D03*
Y242484D02*
D03*
Y245634D02*
D03*
Y248783D02*
D03*
Y251933D02*
D03*
Y255083D02*
D03*
Y258232D02*
D03*
Y261382D02*
D03*
Y264531D02*
D03*
Y267681D02*
D03*
Y270831D02*
D03*
Y273980D02*
D03*
Y277130D02*
D03*
Y280279D02*
D03*
D99*
X164370Y143642D02*
D03*
X154370D02*
D03*
X144370D02*
D03*
X134370D02*
D03*
X114370D02*
D03*
Y221161D02*
D03*
X134370D02*
D03*
X144370D02*
D03*
X154370D02*
D03*
X164370D02*
D03*
D100*
X104370Y143642D02*
D03*
Y221161D02*
D03*
D101*
X348186Y85433D02*
D03*
Y75433D02*
D03*
Y65433D02*
D03*
Y55433D02*
D03*
Y45433D02*
D03*
Y35433D02*
D03*
X318186Y85433D02*
D03*
Y75433D02*
D03*
Y65433D02*
D03*
Y55433D02*
D03*
Y45433D02*
D03*
Y35433D02*
D03*
X370575D02*
D03*
Y45433D02*
D03*
Y55433D02*
D03*
Y65433D02*
D03*
Y75433D02*
D03*
Y85433D02*
D03*
X400575Y35433D02*
D03*
Y45433D02*
D03*
Y55433D02*
D03*
Y65433D02*
D03*
Y75433D02*
D03*
Y85433D02*
D03*
X452965D02*
D03*
Y75433D02*
D03*
Y65433D02*
D03*
Y55433D02*
D03*
Y45433D02*
D03*
Y35433D02*
D03*
X422965Y85433D02*
D03*
Y75433D02*
D03*
Y65433D02*
D03*
Y55433D02*
D03*
Y45433D02*
D03*
Y35433D02*
D03*
X475354D02*
D03*
Y45433D02*
D03*
Y55433D02*
D03*
Y65433D02*
D03*
Y75433D02*
D03*
Y85433D02*
D03*
X505354Y35433D02*
D03*
Y45433D02*
D03*
Y55433D02*
D03*
Y65433D02*
D03*
Y75433D02*
D03*
Y85433D02*
D03*
X49311Y362426D02*
D03*
X59311D02*
D03*
X69311D02*
D03*
X79311D02*
D03*
X89311D02*
D03*
X99311D02*
D03*
X49311Y332426D02*
D03*
X59311D02*
D03*
X69311D02*
D03*
X79311D02*
D03*
X89311D02*
D03*
X99311D02*
D03*
X10335Y80748D02*
D03*
X20335D02*
D03*
X30335D02*
D03*
X40335D02*
D03*
X50335D02*
D03*
X60335D02*
D03*
X10335Y50748D02*
D03*
X20335D02*
D03*
X30335D02*
D03*
X40335D02*
D03*
X50335D02*
D03*
X60335D02*
D03*
D102*
X532229Y346016D02*
D03*
X522229D02*
D03*
Y366016D02*
D03*
Y356016D02*
D03*
X532229D02*
D03*
Y366016D02*
D03*
Y329331D02*
D03*
Y319331D02*
D03*
Y309331D02*
D03*
Y299331D02*
D03*
X522229D02*
D03*
Y309331D02*
D03*
Y319331D02*
D03*
Y329331D02*
D03*
X532229Y282343D02*
D03*
Y272342D02*
D03*
Y262343D02*
D03*
Y252343D02*
D03*
X522229D02*
D03*
Y262343D02*
D03*
Y272342D02*
D03*
Y282343D02*
D03*
Y132441D02*
D03*
Y122441D02*
D03*
X532229D02*
D03*
Y132441D02*
D03*
Y105000D02*
D03*
Y95000D02*
D03*
Y85000D02*
D03*
Y75001D02*
D03*
X522229D02*
D03*
Y85000D02*
D03*
Y95000D02*
D03*
Y105000D02*
D03*
X532229Y57882D02*
D03*
Y47882D02*
D03*
Y37882D02*
D03*
Y27882D02*
D03*
X522229D02*
D03*
Y37882D02*
D03*
Y47882D02*
D03*
Y57882D02*
D03*
X532243Y146260D02*
D03*
Y156260D02*
D03*
D103*
X33622Y107756D02*
D03*
X23622D02*
D03*
X33622Y117756D02*
D03*
X23622D02*
D03*
X33622Y127756D02*
D03*
X23622D02*
D03*
X33622Y137756D02*
D03*
X23622D02*
D03*
X33622Y147756D02*
D03*
X23622D02*
D03*
X33622Y157756D02*
D03*
X23622D02*
D03*
X33622Y167756D02*
D03*
X23622D02*
D03*
X33622Y177756D02*
D03*
Y282933D02*
D03*
X23622Y272933D02*
D03*
X33622D02*
D03*
X23622Y262933D02*
D03*
X33622D02*
D03*
X23622Y252933D02*
D03*
X33622D02*
D03*
X23622Y242933D02*
D03*
X33622D02*
D03*
X23622Y232933D02*
D03*
X33622D02*
D03*
X23622Y222933D02*
D03*
X33622D02*
D03*
X23622Y212933D02*
D03*
X33622D02*
D03*
X10492Y28701D02*
D03*
X20492Y18701D02*
D03*
Y28701D02*
D03*
X30492Y18701D02*
D03*
Y28701D02*
D03*
X40492Y18701D02*
D03*
Y28701D02*
D03*
X50492Y18701D02*
D03*
Y28701D02*
D03*
X60492Y18701D02*
D03*
Y28701D02*
D03*
D104*
X23622Y177756D02*
D03*
Y282933D02*
D03*
D105*
X10492Y18701D02*
D03*
D106*
X538640Y218386D02*
D03*
D107*
X531632Y190276D02*
D03*
Y214370D02*
D03*
X538640Y194291D02*
D03*
Y210354D02*
D03*
X531632Y198307D02*
D03*
Y206339D02*
D03*
X538640Y202323D02*
D03*
D108*
X548640Y229331D02*
D03*
Y179331D02*
D03*
D109*
X535136Y236319D02*
D03*
Y172343D02*
D03*
D110*
X208421Y258049D02*
D03*
X207834Y229689D02*
D03*
X146592Y14370D02*
D03*
X155115Y14036D02*
D03*
X149858D02*
D03*
X196847Y261629D02*
D03*
Y257980D02*
D03*
X208866Y337936D02*
D03*
X209200Y312298D02*
D03*
X192520Y332772D02*
D03*
X176141Y371121D02*
D03*
X166418Y334267D02*
D03*
X462115Y305902D02*
D03*
X472115D02*
D03*
X476957Y305251D02*
D03*
X481957D02*
D03*
X168264Y273357D02*
D03*
X181621Y266561D02*
D03*
X118783Y265170D02*
D03*
X118141Y242647D02*
D03*
X236733Y187578D02*
D03*
X237781Y172227D02*
D03*
X229144Y174551D02*
D03*
X237781Y159089D02*
D03*
X467115Y275559D02*
D03*
X234154Y149854D02*
D03*
X226062Y152506D02*
D03*
X498338Y294988D02*
D03*
X226062Y165644D02*
D03*
X503596Y294988D02*
D03*
X220645Y175643D02*
D03*
X508946Y294988D02*
D03*
X286040Y367666D02*
D03*
X290453Y366043D02*
D03*
X376857Y356888D02*
D03*
X376857Y370961D02*
D03*
X323044Y267584D02*
D03*
X428027Y352368D02*
D03*
X428027Y337365D02*
D03*
Y342365D02*
D03*
Y347530D02*
D03*
X441634Y332287D02*
D03*
X499606Y306492D02*
D03*
X508946Y321952D02*
D03*
X499584Y311658D02*
D03*
X494582Y331199D02*
D03*
X499544Y317685D02*
D03*
X503688Y321952D02*
D03*
X498338D02*
D03*
X216574Y321341D02*
D03*
X471514Y359554D02*
D03*
X237604Y198503D02*
D03*
X466514Y328748D02*
D03*
X237604Y211713D02*
D03*
X461514Y359554D02*
D03*
X226149Y219882D02*
D03*
X226062Y205058D02*
D03*
X225683Y192014D02*
D03*
X417446Y270627D02*
D03*
X339525Y227685D02*
D03*
X320385Y243206D02*
D03*
X393137Y265963D02*
D03*
X227345Y215453D02*
D03*
X227581Y202405D02*
D03*
X229262Y189538D02*
D03*
X295965Y80146D02*
D03*
X3254Y369314D02*
D03*
X6832D02*
D03*
X10411D02*
D03*
X43898Y320177D02*
D03*
Y316896D02*
D03*
Y313615D02*
D03*
Y310335D02*
D03*
X13989Y369314D02*
D03*
X111909Y158983D02*
D03*
X275736Y64665D02*
D03*
X111909Y169429D02*
D03*
X261024Y64665D02*
D03*
X113535Y191271D02*
D03*
X290449Y41043D02*
D03*
X113552Y181458D02*
D03*
X275736Y41043D02*
D03*
X110233Y181424D02*
D03*
X261024Y41043D02*
D03*
X173228Y251024D02*
D03*
X434694Y249150D02*
D03*
X244986Y342588D02*
D03*
X246788Y345252D02*
D03*
X246226Y331750D02*
D03*
X246788Y246024D02*
D03*
X491835Y240516D02*
D03*
X126131Y222933D02*
D03*
X499311Y265963D02*
D03*
X447155Y307384D02*
D03*
X139370Y335042D02*
D03*
X157677Y321471D02*
D03*
X153740D02*
D03*
X139370Y340848D02*
D03*
X133101Y350157D02*
D03*
X145015Y340478D02*
D03*
X139370Y346655D02*
D03*
X476514Y358746D02*
D03*
X503596Y340446D02*
D03*
X229262Y163326D02*
D03*
X-35138Y274114D02*
D03*
X7088Y328864D02*
D03*
X438532Y230208D02*
D03*
Y226523D02*
D03*
Y222837D02*
D03*
Y190351D02*
D03*
Y186665D02*
D03*
Y182980D02*
D03*
Y148535D02*
D03*
Y152221D02*
D03*
Y155906D02*
D03*
X47410Y242933D02*
D03*
X43898Y295884D02*
D03*
Y299164D02*
D03*
Y305726D02*
D03*
X318347Y146029D02*
D03*
X129046Y296004D02*
D03*
X179978Y281496D02*
D03*
X504450Y154303D02*
D03*
X32486Y192032D02*
D03*
X98101Y321941D02*
D03*
X58669Y322327D02*
D03*
X77771Y322543D02*
D03*
X316368Y162178D02*
D03*
X313775Y243203D02*
D03*
X288861Y271959D02*
D03*
X292166D02*
D03*
X295472Y271960D02*
D03*
X288861Y268734D02*
D03*
X292166D02*
D03*
X295472Y268735D02*
D03*
Y265628D02*
D03*
X292166Y265627D02*
D03*
X288861D02*
D03*
X299705Y293507D02*
D03*
X268486Y312373D02*
D03*
X264037D02*
D03*
X129998Y363895D02*
D03*
X139370Y362426D02*
D03*
Y358268D02*
D03*
X115966Y323496D02*
D03*
X46869Y276055D02*
D03*
X44007Y285696D02*
D03*
X110803Y147756D02*
D03*
X91798Y188250D02*
D03*
X126131Y204220D02*
D03*
Y200933D02*
D03*
Y210794D02*
D03*
Y207507D02*
D03*
X126173Y197646D02*
D03*
X107050Y197666D02*
D03*
X107008Y207526D02*
D03*
Y210813D02*
D03*
Y200953D02*
D03*
Y204240D02*
D03*
X72773Y192192D02*
D03*
X11024Y314190D02*
D03*
X7087Y331965D02*
D03*
X-31707Y267681D02*
D03*
X-31693Y274114D02*
D03*
X11024Y296458D02*
D03*
X-31693Y261382D02*
D03*
X-14650Y129035D02*
D03*
X461Y129331D02*
D03*
X15392Y125949D02*
D03*
X15807Y159967D02*
D03*
X461Y161024D02*
D03*
X-14650D02*
D03*
X15558Y193012D02*
D03*
X780D02*
D03*
X-18458Y195669D02*
D03*
X194783Y27165D02*
D03*
X215650Y28154D02*
D03*
Y113591D02*
D03*
X255593Y110880D02*
D03*
Y117278D02*
D03*
X248189Y135370D02*
D03*
X53260Y315809D02*
D03*
X291437Y249508D02*
D03*
X122666Y278740D02*
D03*
X47703Y245866D02*
D03*
X86783Y312557D02*
D03*
X136221Y289272D02*
D03*
X152756Y291732D02*
D03*
X103448Y273695D02*
D03*
X86614Y273357D02*
D03*
X107185Y273413D02*
D03*
X72609Y286614D02*
D03*
X188031Y290323D02*
D03*
X168825Y288583D02*
D03*
X86573Y291089D02*
D03*
X87380Y294820D02*
D03*
X69911Y183439D02*
D03*
X143701Y289764D02*
D03*
X153740Y268120D02*
D03*
X108167Y191271D02*
D03*
X104595D02*
D03*
X96344Y235115D02*
D03*
X94501Y239013D02*
D03*
X98294Y238993D02*
D03*
X116831Y347539D02*
D03*
X143504Y296840D02*
D03*
X143366Y303819D02*
D03*
X152756Y305549D02*
D03*
X133101Y300598D02*
D03*
X169351Y365787D02*
D03*
X206299Y300590D02*
D03*
X442089Y278991D02*
D03*
X416081Y323855D02*
D03*
X447115Y274457D02*
D03*
X446514Y360331D02*
D03*
X446475Y328271D02*
D03*
X184223Y229788D02*
D03*
X184071Y233553D02*
D03*
X183753Y156312D02*
D03*
X183905Y152547D02*
D03*
X113552Y271419D02*
D03*
X110403D02*
D03*
X62967Y290096D02*
D03*
X68659Y301323D02*
D03*
X59018D02*
D03*
X78301D02*
D03*
X49311Y301092D02*
D03*
X66658Y313399D02*
D03*
X157677Y288583D02*
D03*
X96425Y294750D02*
D03*
X77142Y312557D02*
D03*
X53325Y290392D02*
D03*
X159646Y312298D02*
D03*
X126895Y350157D02*
D03*
X116831Y353653D02*
D03*
X277382Y134978D02*
D03*
X268701Y253543D02*
D03*
X389494Y233382D02*
D03*
X188522Y271161D02*
D03*
X188453Y277823D02*
D03*
X515625Y152838D02*
D03*
X450500Y246634D02*
D03*
X326485Y268402D02*
D03*
X214462Y353653D02*
D03*
X191142Y292004D02*
D03*
X310213Y364378D02*
D03*
X338583Y346893D02*
D03*
X99311Y161183D02*
D03*
Y167611D02*
D03*
Y164569D02*
D03*
X-35138Y261382D02*
D03*
Y267681D02*
D03*
X-38386Y261382D02*
D03*
Y267681D02*
D03*
Y274114D02*
D03*
X39961Y305726D02*
D03*
Y302445D02*
D03*
X43898D02*
D03*
X39961Y299164D02*
D03*
Y295884D02*
D03*
X11024Y299739D02*
D03*
X7087D02*
D03*
X11024Y303020D02*
D03*
X7087D02*
D03*
X11024Y306301D02*
D03*
X7087D02*
D03*
Y296458D02*
D03*
X11025Y325583D02*
D03*
Y328864D02*
D03*
Y332144D02*
D03*
Y335425D02*
D03*
X7088D02*
D03*
Y325583D02*
D03*
X11024Y310909D02*
D03*
X7087Y314190D02*
D03*
X11024Y317471D02*
D03*
X7087D02*
D03*
X11024Y320752D02*
D03*
X7087D02*
D03*
Y310909D02*
D03*
X39961Y310335D02*
D03*
Y313615D02*
D03*
Y316896D02*
D03*
Y320177D02*
D03*
X57276Y142657D02*
D03*
X58071Y146595D02*
D03*
X74638Y162345D02*
D03*
X75055Y158408D02*
D03*
X491835Y133139D02*
D03*
Y122312D02*
D03*
Y158177D02*
D03*
Y205324D02*
D03*
Y231311D02*
D03*
Y169005D02*
D03*
Y194909D02*
D03*
X345618Y301465D02*
D03*
X383091Y278185D02*
D03*
Y273067D02*
D03*
Y290981D02*
D03*
X281200Y77515D02*
D03*
X171457Y321471D02*
D03*
X173495Y312298D02*
D03*
X323316Y312587D02*
D03*
X317618Y312992D02*
D03*
X287918Y312402D02*
D03*
X187697Y303815D02*
D03*
X340699Y367331D02*
D03*
X191142Y303819D02*
D03*
X321812Y319329D02*
D03*
X340699D02*
D03*
X321812Y367331D02*
D03*
X187697Y297909D02*
D03*
X191142D02*
D03*
X287918Y351861D02*
D03*
X441634Y327287D02*
D03*
X442020Y274137D02*
D03*
X498290Y276495D02*
D03*
X503688D02*
D03*
X499249Y271573D02*
D03*
X498338Y340446D02*
D03*
X428625Y284386D02*
D03*
Y289137D02*
D03*
Y294218D02*
D03*
Y299137D02*
D03*
X338531Y80610D02*
D03*
X324610Y111282D02*
D03*
X330171Y102417D02*
D03*
X110332Y252073D02*
D03*
X111621Y261629D02*
D03*
X111807Y238647D02*
D03*
X108689Y238678D02*
D03*
X70460Y188676D02*
D03*
X69911Y191870D02*
D03*
X508946Y276495D02*
D03*
X494783Y285572D02*
D03*
X508946Y340446D02*
D03*
X290449Y88287D02*
D03*
X275736D02*
D03*
X260348Y87907D02*
D03*
X290449Y111909D02*
D03*
X275736D02*
D03*
X261024D02*
D03*
X108658Y158983D02*
D03*
X290449Y64665D02*
D03*
X281642Y125254D02*
D03*
X296354Y125614D02*
D03*
X266929Y125550D02*
D03*
X305702Y134415D02*
D03*
X313275Y132735D02*
D03*
X305623Y130329D02*
D03*
X305405Y137262D02*
D03*
X499311Y260451D02*
D03*
X392979Y226958D02*
D03*
Y190457D02*
D03*
X389494Y196350D02*
D03*
Y160185D02*
D03*
X392979Y154292D02*
D03*
X389494Y124020D02*
D03*
X392979Y118701D02*
D03*
X353934Y152408D02*
D03*
X335938Y130252D02*
D03*
X353934Y130022D02*
D03*
X338531Y137775D02*
D03*
X335938Y135370D02*
D03*
Y140489D02*
D03*
X338531Y132735D02*
D03*
Y127617D02*
D03*
X335938Y125134D02*
D03*
X353934Y120180D02*
D03*
Y156345D02*
D03*
Y166188D02*
D03*
Y225605D02*
D03*
Y229542D02*
D03*
Y239385D02*
D03*
Y202353D02*
D03*
X353970Y192510D02*
D03*
X353934Y188574D02*
D03*
Y116243D02*
D03*
X338484Y122598D02*
D03*
Y158764D02*
D03*
Y194929D02*
D03*
X89830Y74546D02*
D03*
X89928Y96622D02*
D03*
X131148Y92864D02*
D03*
X131147Y44043D02*
D03*
X52591Y102461D02*
D03*
X327634Y106079D02*
D03*
X296354Y101928D02*
D03*
X333465Y102756D02*
D03*
X331102Y106079D02*
D03*
X329626Y109350D02*
D03*
X266929Y101928D02*
D03*
X459842Y188091D02*
D03*
X281642Y101928D02*
D03*
X457972Y214452D02*
D03*
X462115D02*
D03*
Y250618D02*
D03*
X457972D02*
D03*
X459842Y224256D02*
D03*
X341485Y74113D02*
D03*
Y63484D02*
D03*
Y58337D02*
D03*
Y90256D02*
D03*
Y39862D02*
D03*
X453051Y179903D02*
D03*
X455315Y162836D02*
D03*
Y199002D02*
D03*
Y234941D02*
D03*
X453051Y143737D02*
D03*
X457923Y141530D02*
D03*
X455315Y126673D02*
D03*
X453051Y216069D02*
D03*
Y107572D02*
D03*
X173228Y164429D02*
D03*
Y169429D02*
D03*
Y174429D02*
D03*
X313275Y127617D02*
D03*
X267110Y55725D02*
D03*
X77055Y148566D02*
D03*
Y152503D02*
D03*
X305623Y125210D02*
D03*
X77230Y267520D02*
D03*
Y263583D02*
D03*
Y253740D02*
D03*
Y245866D02*
D03*
Y249803D02*
D03*
Y257677D02*
D03*
X77239Y140692D02*
D03*
Y144629D02*
D03*
X58071Y150531D02*
D03*
X96744Y82528D02*
D03*
Y77409D02*
D03*
X58071Y255709D02*
D03*
X106193Y90205D02*
D03*
X58071Y265551D02*
D03*
X96744Y87646D02*
D03*
X58071Y261614D02*
D03*
X106193Y85087D02*
D03*
X58071Y269488D02*
D03*
Y251772D02*
D03*
X106193Y79969D02*
D03*
X58071Y247835D02*
D03*
X77230Y220276D02*
D03*
Y224213D02*
D03*
X86614Y234055D02*
D03*
Y230118D02*
D03*
Y226181D02*
D03*
X56628Y220276D02*
D03*
Y224213D02*
D03*
X50187Y191835D02*
D03*
X89830Y62528D02*
D03*
X89798Y107723D02*
D03*
X134047Y113572D02*
D03*
Y65312D02*
D03*
X146592Y25047D02*
D03*
X106193Y31248D02*
D03*
X56628Y228150D02*
D03*
X96744Y33807D02*
D03*
X56628Y232087D02*
D03*
X58071Y156437D02*
D03*
X106193Y36366D02*
D03*
X56628Y236024D02*
D03*
X58071Y160374D02*
D03*
X96744Y38925D02*
D03*
X56628Y243898D02*
D03*
X58071Y164311D02*
D03*
X106193Y41484D02*
D03*
X59252Y190261D02*
D03*
X47703Y222244D02*
D03*
Y226181D02*
D03*
Y230118D02*
D03*
Y234055D02*
D03*
Y239961D02*
D03*
X77230Y271457D02*
D03*
Y241929D02*
D03*
Y236024D02*
D03*
Y232087D02*
D03*
Y228150D02*
D03*
X86510Y247939D02*
D03*
X152756Y295669D02*
D03*
X86614Y251772D02*
D03*
X152756Y309466D02*
D03*
X86614Y222244D02*
D03*
Y239961D02*
D03*
Y255709D02*
D03*
Y243898D02*
D03*
X155709Y279528D02*
D03*
X163583D02*
D03*
X161614Y288583D02*
D03*
X167520Y279528D02*
D03*
X143701Y307480D02*
D03*
X165551Y288583D02*
D03*
X159646Y279528D02*
D03*
X173228Y246024D02*
D03*
X86614Y269488D02*
D03*
Y265551D02*
D03*
Y261614D02*
D03*
X169488Y312298D02*
D03*
X155709D02*
D03*
X143701Y311417D02*
D03*
Y293701D02*
D03*
X173228Y241024D02*
D03*
X434694Y140652D02*
D03*
X228323Y149854D02*
D03*
X419817Y124209D02*
D03*
Y129721D02*
D03*
Y160346D02*
D03*
Y165945D02*
D03*
Y196448D02*
D03*
Y202000D02*
D03*
Y233601D02*
D03*
Y239507D02*
D03*
X450500Y223701D02*
D03*
Y187535D02*
D03*
Y151369D02*
D03*
Y115203D02*
D03*
Y138136D02*
D03*
Y174302D02*
D03*
Y210468D02*
D03*
X459842Y115759D02*
D03*
Y151925D02*
D03*
X462066Y141530D02*
D03*
X457923Y177696D02*
D03*
X462066D02*
D03*
X309367Y267584D02*
D03*
X395875Y321061D02*
D03*
Y335476D02*
D03*
X395847Y349413D02*
D03*
Y363586D02*
D03*
X281233Y53764D02*
D03*
X296262Y54421D02*
D03*
X266929Y78306D02*
D03*
X255593Y37451D02*
D03*
X255593Y31644D02*
D03*
Y64735D02*
D03*
Y58337D02*
D03*
X255593Y85094D02*
D03*
Y91197D02*
D03*
X376886Y328699D02*
D03*
X376857Y342916D02*
D03*
X481514Y358753D02*
D03*
X11811Y183439D02*
D03*
X-3347D02*
D03*
X-18458D02*
D03*
X11811Y119462D02*
D03*
X-18458D02*
D03*
X-3347D02*
D03*
X11811Y151155D02*
D03*
X-3347Y151450D02*
D03*
X-18458Y151155D02*
D03*
X96744Y28689D02*
D03*
X194783Y102677D02*
D03*
Y77547D02*
D03*
Y52421D02*
D03*
X179345Y46005D02*
D03*
X179524Y121236D02*
D03*
Y115240D02*
D03*
X179824Y96390D02*
D03*
Y90114D02*
D03*
X180065Y71268D02*
D03*
Y65024D02*
D03*
Y39854D02*
D03*
X-11855Y103305D02*
D03*
X146592Y98201D02*
D03*
Y33020D02*
D03*
Y48968D02*
D03*
Y64917D02*
D03*
Y40992D02*
D03*
Y56941D02*
D03*
Y114150D02*
D03*
Y106173D02*
D03*
Y90228D02*
D03*
Y82252D02*
D03*
Y74279D02*
D03*
X160447Y25295D02*
D03*
Y33268D02*
D03*
Y41240D02*
D03*
Y49216D02*
D03*
Y57189D02*
D03*
Y65165D02*
D03*
Y74528D02*
D03*
Y82500D02*
D03*
Y90476D02*
D03*
Y98449D02*
D03*
Y106421D02*
D03*
Y114398D02*
D03*
D136*
X244061Y186319D02*
D03*
X195965Y297909D02*
D03*
X305610Y364378D02*
D03*
X244061Y198503D02*
D03*
Y211713D02*
D03*
X175000Y364862D02*
D03*
X194231Y271161D02*
D03*
X194231Y277823D02*
D03*
X268701Y260039D02*
D03*
X145015Y334744D02*
D03*
X195965Y292004D02*
D03*
X182177D02*
D03*
Y297909D02*
D03*
Y303815D02*
D03*
X195965D02*
D03*
X244061Y172227D02*
D03*
Y159089D02*
D03*
Y149854D02*
D03*
X334616Y232087D02*
D03*
X291437Y256046D02*
D03*
X277264Y139665D02*
D03*
M02*
