G04*
G04 #@! TF.GenerationSoftware,Altium Limited,Altium Designer,21.1.1 (26)*
G04*
G04 Layer_Color=8421504*
%FSLAX25Y25*%
%MOIN*%
G70*
G04*
G04 #@! TF.SameCoordinates,6E07179A-5F3D-4519-8887-A0F6EE2C59F2*
G04*
G04*
G04 #@! TF.FilePolarity,Positive*
G04*
G01*
G75*
G04:AMPARAMS|DCode=20|XSize=59.26mil|YSize=22.53mil|CornerRadius=11.26mil|HoleSize=0mil|Usage=FLASHONLY|Rotation=0.000|XOffset=0mil|YOffset=0mil|HoleType=Round|Shape=RoundedRectangle|*
%AMROUNDEDRECTD20*
21,1,0.05926,0.00000,0,0,0.0*
21,1,0.03674,0.02253,0,0,0.0*
1,1,0.02253,0.01837,0.00000*
1,1,0.02253,-0.01837,0.00000*
1,1,0.02253,-0.01837,0.00000*
1,1,0.02253,0.01837,0.00000*
%
%ADD20ROUNDEDRECTD20*%
%ADD21R,0.05926X0.02253*%
%ADD22R,0.03937X0.02756*%
%ADD23R,0.03347X0.03543*%
%ADD24R,0.03150X0.03150*%
%ADD25O,0.08268X0.02559*%
%ADD26R,0.04724X0.08268*%
G04:AMPARAMS|DCode=27|XSize=7.87mil|YSize=47.24mil|CornerRadius=1.97mil|HoleSize=0mil|Usage=FLASHONLY|Rotation=180.000|XOffset=0mil|YOffset=0mil|HoleType=Round|Shape=RoundedRectangle|*
%AMROUNDEDRECTD27*
21,1,0.00787,0.04331,0,0,180.0*
21,1,0.00394,0.04724,0,0,180.0*
1,1,0.00394,-0.00197,0.02165*
1,1,0.00394,0.00197,0.02165*
1,1,0.00394,0.00197,-0.02165*
1,1,0.00394,-0.00197,-0.02165*
%
%ADD27ROUNDEDRECTD27*%
%ADD28R,0.08268X0.04724*%
%ADD29R,0.03543X0.03347*%
%ADD30R,0.02756X0.03937*%
%ADD31R,0.05118X0.02362*%
%ADD32R,0.03347X0.03347*%
%ADD33O,0.02362X0.08661*%
%ADD34O,0.08661X0.02362*%
%ADD35R,0.03347X0.03347*%
%ADD36R,0.04134X0.01772*%
%ADD37C,0.09709*%
%ADD38R,0.07165X0.04764*%
G04:AMPARAMS|DCode=39|XSize=7.87mil|YSize=47.24mil|CornerRadius=1.97mil|HoleSize=0mil|Usage=FLASHONLY|Rotation=270.000|XOffset=0mil|YOffset=0mil|HoleType=Round|Shape=RoundedRectangle|*
%AMROUNDEDRECTD39*
21,1,0.00787,0.04331,0,0,270.0*
21,1,0.00394,0.04724,0,0,270.0*
1,1,0.00394,-0.02165,-0.00197*
1,1,0.00394,-0.02165,0.00197*
1,1,0.00394,0.02165,0.00197*
1,1,0.00394,0.02165,-0.00197*
%
%ADD39ROUNDEDRECTD39*%
%ADD40R,0.03150X0.01968*%
G04:AMPARAMS|DCode=41|XSize=21.65mil|YSize=31.5mil|CornerRadius=1.95mil|HoleSize=0mil|Usage=FLASHONLY|Rotation=270.000|XOffset=0mil|YOffset=0mil|HoleType=Round|Shape=RoundedRectangle|*
%AMROUNDEDRECTD41*
21,1,0.02165,0.02760,0,0,270.0*
21,1,0.01776,0.03150,0,0,270.0*
1,1,0.00390,-0.01380,-0.00888*
1,1,0.00390,-0.01380,0.00888*
1,1,0.00390,0.01380,0.00888*
1,1,0.00390,0.01380,-0.00888*
%
%ADD41ROUNDEDRECTD41*%
G04:AMPARAMS|DCode=42|XSize=15.75mil|YSize=47.24mil|CornerRadius=1.97mil|HoleSize=0mil|Usage=FLASHONLY|Rotation=90.000|XOffset=0mil|YOffset=0mil|HoleType=Round|Shape=RoundedRectangle|*
%AMROUNDEDRECTD42*
21,1,0.01575,0.04331,0,0,90.0*
21,1,0.01181,0.04724,0,0,90.0*
1,1,0.00394,0.02165,0.00591*
1,1,0.00394,0.02165,-0.00591*
1,1,0.00394,-0.02165,-0.00591*
1,1,0.00394,-0.02165,0.00591*
%
%ADD42ROUNDEDRECTD42*%
G04:AMPARAMS|DCode=43|XSize=11.81mil|YSize=59.06mil|CornerRadius=2.95mil|HoleSize=0mil|Usage=FLASHONLY|Rotation=90.000|XOffset=0mil|YOffset=0mil|HoleType=Round|Shape=RoundedRectangle|*
%AMROUNDEDRECTD43*
21,1,0.01181,0.05315,0,0,90.0*
21,1,0.00591,0.05906,0,0,90.0*
1,1,0.00591,0.02657,0.00295*
1,1,0.00591,0.02657,-0.00295*
1,1,0.00591,-0.02657,-0.00295*
1,1,0.00591,-0.02657,0.00295*
%
%ADD43ROUNDEDRECTD43*%
%ADD44R,0.05512X0.03937*%
%ADD45R,0.13307X0.10433*%
%ADD46R,0.00984X0.02756*%
%ADD47R,0.04764X0.07165*%
%ADD48R,0.12362X0.06614*%
%ADD49R,0.06614X0.12362*%
%ADD50R,0.07087X0.07874*%
G04:AMPARAMS|DCode=51|XSize=9.84mil|YSize=49.21mil|CornerRadius=1.97mil|HoleSize=0mil|Usage=FLASHONLY|Rotation=270.000|XOffset=0mil|YOffset=0mil|HoleType=Round|Shape=RoundedRectangle|*
%AMROUNDEDRECTD51*
21,1,0.00984,0.04528,0,0,270.0*
21,1,0.00591,0.04921,0,0,270.0*
1,1,0.00394,-0.02264,-0.00295*
1,1,0.00394,-0.02264,0.00295*
1,1,0.00394,0.02264,0.00295*
1,1,0.00394,0.02264,-0.00295*
%
%ADD51ROUNDEDRECTD51*%
G04:AMPARAMS|DCode=52|XSize=9.84mil|YSize=49.21mil|CornerRadius=1.97mil|HoleSize=0mil|Usage=FLASHONLY|Rotation=0.000|XOffset=0mil|YOffset=0mil|HoleType=Round|Shape=RoundedRectangle|*
%AMROUNDEDRECTD52*
21,1,0.00984,0.04528,0,0,0.0*
21,1,0.00591,0.04921,0,0,0.0*
1,1,0.00394,0.00295,-0.02264*
1,1,0.00394,-0.00295,-0.02264*
1,1,0.00394,-0.00295,0.02264*
1,1,0.00394,0.00295,0.02264*
%
%ADD52ROUNDEDRECTD52*%
%ADD53R,0.04803X0.02362*%
%ADD54R,0.04803X0.02441*%
%ADD55R,0.01772X0.05709*%
%ADD56R,0.06496X0.11221*%
%ADD57R,0.03543X0.01063*%
%ADD58R,0.03937X0.05512*%
%ADD59R,0.14173X0.10630*%
%ADD60R,0.03937X0.08268*%
%ADD61R,0.06614X0.07559*%
G36*
X371247Y289209D02*
X372744D01*
Y269721D01*
X371247D01*
Y267516D01*
X363452D01*
Y269721D01*
X361956D01*
Y289209D01*
X363452D01*
Y291414D01*
X371247D01*
Y289209D01*
D02*
G37*
D20*
X207777Y240122D02*
D03*
Y232642D02*
D03*
X199112D02*
D03*
Y236382D02*
D03*
D21*
Y240122D02*
D03*
D22*
X214949Y240477D02*
D03*
Y234375D02*
D03*
X98294Y266013D02*
D03*
Y259911D02*
D03*
X91682D02*
D03*
Y266013D02*
D03*
X176113Y230059D02*
D03*
Y236161D02*
D03*
X118060Y230835D02*
D03*
Y236938D02*
D03*
X91798Y185395D02*
D03*
Y179293D02*
D03*
X325626Y367331D02*
D03*
Y361229D02*
D03*
X344513D02*
D03*
Y367331D02*
D03*
X481917Y362432D02*
D03*
Y368535D02*
D03*
X451224Y361020D02*
D03*
Y367122D02*
D03*
X476917Y327832D02*
D03*
Y321730D02*
D03*
X390291Y282557D02*
D03*
Y276455D02*
D03*
X348661Y238461D02*
D03*
Y232359D02*
D03*
X342382D02*
D03*
Y238461D02*
D03*
X348661Y201303D02*
D03*
Y195201D02*
D03*
X342382D02*
D03*
Y201303D02*
D03*
X245763Y25717D02*
D03*
Y31819D02*
D03*
Y52106D02*
D03*
Y58209D02*
D03*
Y79488D02*
D03*
Y85590D02*
D03*
Y110906D02*
D03*
Y104803D02*
D03*
Y43819D02*
D03*
Y37716D02*
D03*
Y69870D02*
D03*
Y63768D02*
D03*
Y96480D02*
D03*
Y90378D02*
D03*
X245394Y116472D02*
D03*
Y122575D02*
D03*
X245472Y330239D02*
D03*
Y324136D02*
D03*
X240255Y330239D02*
D03*
Y324136D02*
D03*
X402559Y118311D02*
D03*
Y112209D02*
D03*
Y141933D02*
D03*
Y135831D02*
D03*
Y130122D02*
D03*
Y124020D02*
D03*
Y166449D02*
D03*
Y160346D02*
D03*
Y154638D02*
D03*
Y148535D02*
D03*
Y178260D02*
D03*
Y172158D02*
D03*
Y190642D02*
D03*
Y184539D02*
D03*
Y202453D02*
D03*
Y196350D02*
D03*
Y214264D02*
D03*
Y208161D02*
D03*
Y239484D02*
D03*
Y233382D02*
D03*
Y251295D02*
D03*
Y245193D02*
D03*
Y227673D02*
D03*
Y221571D02*
D03*
X443938Y140652D02*
D03*
Y134550D02*
D03*
X438532Y140652D02*
D03*
Y134550D02*
D03*
X443870Y176818D02*
D03*
Y170716D02*
D03*
X438532D02*
D03*
Y176818D02*
D03*
X443938Y212984D02*
D03*
Y206882D02*
D03*
X438532Y212984D02*
D03*
Y206882D02*
D03*
X443938Y249150D02*
D03*
Y243048D02*
D03*
X438532Y249150D02*
D03*
Y243048D02*
D03*
X43256Y198135D02*
D03*
Y192032D02*
D03*
X98294Y185494D02*
D03*
Y179391D02*
D03*
X36957Y198135D02*
D03*
Y192032D02*
D03*
X473289Y141688D02*
D03*
Y135585D02*
D03*
Y177853D02*
D03*
Y171751D02*
D03*
Y214019D02*
D03*
Y207917D02*
D03*
Y250185D02*
D03*
Y244083D02*
D03*
Y130902D02*
D03*
Y124800D02*
D03*
Y167068D02*
D03*
Y160966D02*
D03*
Y203234D02*
D03*
Y197132D02*
D03*
Y239400D02*
D03*
Y233297D02*
D03*
Y119959D02*
D03*
Y113857D02*
D03*
Y156125D02*
D03*
Y150022D02*
D03*
Y186188D02*
D03*
Y192291D02*
D03*
Y228457D02*
D03*
Y222354D02*
D03*
X139370Y297539D02*
D03*
Y303642D02*
D03*
X133101Y297539D02*
D03*
Y303642D02*
D03*
X144360Y344881D02*
D03*
Y350984D02*
D03*
X195965Y313879D02*
D03*
Y307776D02*
D03*
X202170Y300590D02*
D03*
Y294488D02*
D03*
X195965Y300590D02*
D03*
Y294488D02*
D03*
X325626Y319329D02*
D03*
Y325431D02*
D03*
X344513Y319329D02*
D03*
Y325431D02*
D03*
X318807Y340791D02*
D03*
Y346893D02*
D03*
X317391Y208707D02*
D03*
Y202605D02*
D03*
X334616Y163038D02*
D03*
Y156936D02*
D03*
X270768Y150906D02*
D03*
Y157008D02*
D03*
X310965Y255965D02*
D03*
Y249863D02*
D03*
X317717Y229275D02*
D03*
Y223172D02*
D03*
X273327Y191878D02*
D03*
Y197980D02*
D03*
X379962Y119130D02*
D03*
Y113028D02*
D03*
Y155296D02*
D03*
Y149193D02*
D03*
Y185359D02*
D03*
Y191461D02*
D03*
Y222390D02*
D03*
Y228492D02*
D03*
X342382Y122870D02*
D03*
Y128973D02*
D03*
Y159036D02*
D03*
Y165138D02*
D03*
X348661Y128973D02*
D03*
Y122870D02*
D03*
Y165138D02*
D03*
Y159036D02*
D03*
X385984Y130122D02*
D03*
Y124020D02*
D03*
Y166449D02*
D03*
Y160346D02*
D03*
Y202453D02*
D03*
Y196350D02*
D03*
Y233382D02*
D03*
Y239484D02*
D03*
X379962Y124020D02*
D03*
Y130122D02*
D03*
Y160346D02*
D03*
Y166449D02*
D03*
Y196350D02*
D03*
Y202453D02*
D03*
Y239484D02*
D03*
Y233382D02*
D03*
X481917Y313902D02*
D03*
Y307800D02*
D03*
X477723Y266864D02*
D03*
Y272966D02*
D03*
X451626Y313902D02*
D03*
Y307800D02*
D03*
X119539Y151614D02*
D03*
Y157717D02*
D03*
X176113Y152941D02*
D03*
Y159043D02*
D03*
D23*
X144231Y5020D02*
D03*
X150334D02*
D03*
Y10244D02*
D03*
X144231D02*
D03*
X-1405Y103639D02*
D03*
X-7507D02*
D03*
X23109Y337870D02*
D03*
X29212D02*
D03*
Y353208D02*
D03*
X23109D02*
D03*
X389113Y318305D02*
D03*
X395216D02*
D03*
X395187Y332720D02*
D03*
X389085D02*
D03*
Y346657D02*
D03*
X395187D02*
D03*
Y360830D02*
D03*
X389085D02*
D03*
X502991Y260451D02*
D03*
X509094D02*
D03*
X502991Y266074D02*
D03*
X509094D02*
D03*
Y271563D02*
D03*
X502991D02*
D03*
X509972Y317421D02*
D03*
X503869D02*
D03*
Y311982D02*
D03*
X509972D02*
D03*
X503869Y306175D02*
D03*
X509972D02*
D03*
X215807Y218272D02*
D03*
X221909D02*
D03*
X215807Y205134D02*
D03*
X221909D02*
D03*
X215807Y191996D02*
D03*
X221909D02*
D03*
X215807Y178858D02*
D03*
X221909D02*
D03*
X215835Y165720D02*
D03*
X221937D02*
D03*
X215807Y152678D02*
D03*
X221909D02*
D03*
X164768Y25307D02*
D03*
X170870D02*
D03*
X164768Y33299D02*
D03*
X170870D02*
D03*
X164768Y41295D02*
D03*
X170870D02*
D03*
X164768Y49291D02*
D03*
X170870D02*
D03*
X164768Y57287D02*
D03*
X170870D02*
D03*
X164768Y65284D02*
D03*
X170870D02*
D03*
Y74410D02*
D03*
X164768D02*
D03*
X170870Y82406D02*
D03*
X164768D02*
D03*
X170870Y90398D02*
D03*
X164768D02*
D03*
X170870Y98394D02*
D03*
X164768D02*
D03*
X170870Y106390D02*
D03*
X164768D02*
D03*
X170870Y114386D02*
D03*
X164768D02*
D03*
X257828Y369598D02*
D03*
X251726D02*
D03*
X229901Y359499D02*
D03*
X236003D02*
D03*
X224266Y353653D02*
D03*
X218163D02*
D03*
X-16628Y110138D02*
D03*
X-22730D02*
D03*
X-22926Y104331D02*
D03*
X-16824D02*
D03*
X20571Y91886D02*
D03*
X26673D02*
D03*
X39882D02*
D03*
X45984D02*
D03*
X59646D02*
D03*
X65748D02*
D03*
X416387Y124209D02*
D03*
X410284D02*
D03*
X416387Y160346D02*
D03*
X410284D02*
D03*
X416387Y196448D02*
D03*
X410284D02*
D03*
X416387Y233601D02*
D03*
X410284D02*
D03*
X416387Y129721D02*
D03*
X410284D02*
D03*
X416387Y165945D02*
D03*
X410284D02*
D03*
X416387Y202000D02*
D03*
X410284D02*
D03*
X416387Y239507D02*
D03*
X410284D02*
D03*
X487019Y122312D02*
D03*
X480917D02*
D03*
X487019Y133071D02*
D03*
X480917D02*
D03*
X487019Y158177D02*
D03*
X480917D02*
D03*
X487019Y169241D02*
D03*
X480917D02*
D03*
X487019Y194909D02*
D03*
X480917D02*
D03*
X487019Y205324D02*
D03*
X480917D02*
D03*
X487019Y231311D02*
D03*
X480917D02*
D03*
X487019Y241465D02*
D03*
X480917D02*
D03*
X202256Y192035D02*
D03*
X208358D02*
D03*
X202256Y205154D02*
D03*
X208358D02*
D03*
X202256Y218273D02*
D03*
X208358D02*
D03*
X202256Y152583D02*
D03*
X208358D02*
D03*
X202256Y165797D02*
D03*
X208358D02*
D03*
X202256Y178916D02*
D03*
X208358D02*
D03*
X17247Y328268D02*
D03*
X23350D02*
D03*
X513604Y146000D02*
D03*
X507501D02*
D03*
X525457D02*
D03*
X519354D02*
D03*
X95443Y321941D02*
D03*
X89341D02*
D03*
X75114Y322543D02*
D03*
X69012D02*
D03*
X56012Y322433D02*
D03*
X49909D02*
D03*
X82362Y286614D02*
D03*
X76260D02*
D03*
X184054Y77547D02*
D03*
X190157D02*
D03*
X184054Y83831D02*
D03*
X190157D02*
D03*
X184054Y90114D02*
D03*
X190157D02*
D03*
Y96394D02*
D03*
X184054D02*
D03*
Y102677D02*
D03*
X190157D02*
D03*
X184054Y108957D02*
D03*
X190157D02*
D03*
X184054Y115240D02*
D03*
X190157D02*
D03*
Y121524D02*
D03*
X184054D02*
D03*
X97047Y281791D02*
D03*
X90945D02*
D03*
Y275818D02*
D03*
X97047D02*
D03*
X88254Y317471D02*
D03*
X82152D02*
D03*
X66605D02*
D03*
X72707D02*
D03*
X118268Y278737D02*
D03*
X112165D02*
D03*
X179400Y261917D02*
D03*
X185502D02*
D03*
X179400Y255709D02*
D03*
X185502D02*
D03*
X191180Y271161D02*
D03*
X197282D02*
D03*
X191180Y277823D02*
D03*
X197282D02*
D03*
X185502Y271161D02*
D03*
X179400D02*
D03*
X185502Y277823D02*
D03*
X179400D02*
D03*
X257827Y302334D02*
D03*
X251725D02*
D03*
X257827Y295779D02*
D03*
X251725D02*
D03*
X281816Y309224D02*
D03*
X287918D02*
D03*
Y315708D02*
D03*
X281816D02*
D03*
X212901Y312298D02*
D03*
X219003D02*
D03*
X257827Y323188D02*
D03*
X251725D02*
D03*
X267765Y192796D02*
D03*
X261662D02*
D03*
X251726Y328987D02*
D03*
X257828D02*
D03*
X231338Y306468D02*
D03*
X225236D02*
D03*
X257828Y341842D02*
D03*
X251726D02*
D03*
X257828Y335936D02*
D03*
X251726D02*
D03*
X281816Y349106D02*
D03*
X287918D02*
D03*
Y355562D02*
D03*
X281816D02*
D03*
X251726Y363003D02*
D03*
X257828D02*
D03*
X184054Y27291D02*
D03*
X190157D02*
D03*
X184054Y33575D02*
D03*
X190157D02*
D03*
X184054Y39854D02*
D03*
X190157D02*
D03*
Y46138D02*
D03*
X184054D02*
D03*
Y52421D02*
D03*
X190157D02*
D03*
X184054Y58701D02*
D03*
X190157D02*
D03*
X184054Y64984D02*
D03*
X190157D02*
D03*
Y71268D02*
D03*
X184054D02*
D03*
D24*
X23251Y362263D02*
D03*
X29550D02*
D03*
X23251Y344948D02*
D03*
X29550D02*
D03*
X35309Y328268D02*
D03*
X29010D02*
D03*
D25*
X165933Y154429D02*
D03*
Y159429D02*
D03*
Y164429D02*
D03*
Y169429D02*
D03*
Y174429D02*
D03*
Y179429D02*
D03*
Y184429D02*
D03*
Y189429D02*
D03*
X127744Y154429D02*
D03*
Y159429D02*
D03*
Y164429D02*
D03*
Y169429D02*
D03*
Y174429D02*
D03*
Y179429D02*
D03*
Y184429D02*
D03*
Y189429D02*
D03*
X165933Y231024D02*
D03*
Y236024D02*
D03*
Y241024D02*
D03*
Y246024D02*
D03*
Y251024D02*
D03*
Y256024D02*
D03*
Y261024D02*
D03*
Y266024D02*
D03*
X127744Y231024D02*
D03*
Y236024D02*
D03*
Y241024D02*
D03*
Y246024D02*
D03*
Y251024D02*
D03*
Y256024D02*
D03*
Y261024D02*
D03*
Y266024D02*
D03*
D26*
X132267Y312666D02*
D03*
X120456D02*
D03*
X120622Y323496D02*
D03*
X132433D02*
D03*
X280426Y260946D02*
D03*
X268615D02*
D03*
X280426Y283957D02*
D03*
X268615D02*
D03*
X280426Y272342D02*
D03*
X268615D02*
D03*
X232874Y233563D02*
D03*
X221063D02*
D03*
D27*
X104035Y243602D02*
D03*
X105610D02*
D03*
X107185D02*
D03*
X108760D02*
D03*
X110335D02*
D03*
X111909D02*
D03*
X113484D02*
D03*
X115059D02*
D03*
X104035Y266043D02*
D03*
X105610D02*
D03*
X107185D02*
D03*
X108760D02*
D03*
X110335D02*
D03*
X111909D02*
D03*
X113484D02*
D03*
X115059D02*
D03*
X104035Y163938D02*
D03*
X105610D02*
D03*
X107185D02*
D03*
X108760D02*
D03*
X110335D02*
D03*
X111909D02*
D03*
X113484D02*
D03*
X115059D02*
D03*
X104035Y186380D02*
D03*
X105610D02*
D03*
X107185D02*
D03*
X108760D02*
D03*
X110335D02*
D03*
X111909D02*
D03*
X113484D02*
D03*
X115059D02*
D03*
D28*
X134047Y108689D02*
D03*
Y96878D02*
D03*
X89798Y91886D02*
D03*
Y103697D02*
D03*
X89830Y66980D02*
D03*
Y78791D02*
D03*
X134047Y59969D02*
D03*
Y48158D02*
D03*
D29*
X331535Y367626D02*
D03*
Y361524D02*
D03*
X350354Y367626D02*
D03*
Y361524D02*
D03*
X456514Y367410D02*
D03*
Y361307D02*
D03*
X476411Y368695D02*
D03*
Y362593D02*
D03*
X471218Y321730D02*
D03*
Y327832D02*
D03*
X400125Y289940D02*
D03*
Y296042D02*
D03*
X397370Y278284D02*
D03*
Y284386D02*
D03*
X335419Y280710D02*
D03*
Y274608D02*
D03*
X330186Y274504D02*
D03*
Y268402D02*
D03*
X311713Y217304D02*
D03*
Y223406D02*
D03*
Y228918D02*
D03*
Y235020D02*
D03*
X251767Y37823D02*
D03*
Y31721D02*
D03*
Y64516D02*
D03*
Y58413D02*
D03*
X251669Y85094D02*
D03*
Y91197D02*
D03*
X251767Y117059D02*
D03*
Y110957D02*
D03*
X239858Y122575D02*
D03*
Y116472D02*
D03*
Y104803D02*
D03*
Y110906D02*
D03*
Y96693D02*
D03*
Y90591D02*
D03*
Y85465D02*
D03*
Y79362D02*
D03*
Y63744D02*
D03*
Y69846D02*
D03*
Y52311D02*
D03*
Y58413D02*
D03*
Y37216D02*
D03*
Y43319D02*
D03*
Y26012D02*
D03*
Y32114D02*
D03*
X178397Y27650D02*
D03*
Y33752D02*
D03*
Y52776D02*
D03*
Y58878D02*
D03*
X178397Y84126D02*
D03*
Y78024D02*
D03*
Y109134D02*
D03*
Y103032D02*
D03*
X75425Y182146D02*
D03*
Y176043D02*
D03*
X75425Y207015D02*
D03*
Y213118D02*
D03*
X66010Y206587D02*
D03*
Y212689D02*
D03*
X66008Y182146D02*
D03*
Y176043D02*
D03*
X56595Y182146D02*
D03*
Y176043D02*
D03*
Y206303D02*
D03*
Y212405D02*
D03*
X53325Y312557D02*
D03*
Y306455D02*
D03*
X-24433Y186909D02*
D03*
Y193012D02*
D03*
X-9252Y186909D02*
D03*
Y193012D02*
D03*
X5906Y186909D02*
D03*
Y193012D02*
D03*
X-18458D02*
D03*
Y186909D02*
D03*
X-3347Y193012D02*
D03*
Y186909D02*
D03*
X11811Y193012D02*
D03*
Y186909D02*
D03*
X62967Y312557D02*
D03*
Y306455D02*
D03*
X82250Y294925D02*
D03*
Y301027D02*
D03*
X261024Y50295D02*
D03*
Y44193D02*
D03*
Y73917D02*
D03*
Y67815D02*
D03*
Y97539D02*
D03*
Y91437D02*
D03*
Y121161D02*
D03*
Y115059D02*
D03*
X275736Y50295D02*
D03*
Y44193D02*
D03*
Y73917D02*
D03*
Y67815D02*
D03*
Y97539D02*
D03*
Y91437D02*
D03*
Y121161D02*
D03*
Y115059D02*
D03*
X290449Y50295D02*
D03*
Y44193D02*
D03*
Y73917D02*
D03*
Y67815D02*
D03*
Y97539D02*
D03*
Y91437D02*
D03*
Y121161D02*
D03*
Y115059D02*
D03*
X266929Y50295D02*
D03*
Y44193D02*
D03*
Y73917D02*
D03*
Y67815D02*
D03*
Y97539D02*
D03*
Y91437D02*
D03*
Y121161D02*
D03*
Y115059D02*
D03*
X281642Y50295D02*
D03*
Y44193D02*
D03*
Y73917D02*
D03*
Y67815D02*
D03*
Y97539D02*
D03*
Y91437D02*
D03*
Y121161D02*
D03*
Y115059D02*
D03*
X296354Y50295D02*
D03*
Y44193D02*
D03*
Y73917D02*
D03*
Y67815D02*
D03*
Y97539D02*
D03*
Y91437D02*
D03*
Y121161D02*
D03*
Y115059D02*
D03*
X72609Y294925D02*
D03*
Y301027D02*
D03*
X62967Y294925D02*
D03*
Y301027D02*
D03*
X53325Y294925D02*
D03*
Y301027D02*
D03*
X72609Y312557D02*
D03*
Y306455D02*
D03*
X82250Y312557D02*
D03*
Y306455D02*
D03*
X68110Y283661D02*
D03*
Y289764D02*
D03*
X49016Y283858D02*
D03*
Y289961D02*
D03*
X120555Y353503D02*
D03*
Y359606D02*
D03*
X133101Y341397D02*
D03*
Y347499D02*
D03*
X133101Y353503D02*
D03*
Y359606D02*
D03*
X126895Y341397D02*
D03*
Y347499D02*
D03*
Y353503D02*
D03*
Y359606D02*
D03*
X120555Y347499D02*
D03*
Y341397D02*
D03*
X195965Y355423D02*
D03*
Y349321D02*
D03*
X189764Y355423D02*
D03*
Y349321D02*
D03*
X195965Y343317D02*
D03*
Y337215D02*
D03*
X189764Y343317D02*
D03*
Y337215D02*
D03*
X476861Y307933D02*
D03*
Y314035D02*
D03*
X471781Y272867D02*
D03*
Y266765D02*
D03*
X457115Y307800D02*
D03*
Y313902D02*
D03*
X5906Y122933D02*
D03*
Y129035D02*
D03*
X-9252Y122933D02*
D03*
Y129035D02*
D03*
X-24433Y122933D02*
D03*
Y129035D02*
D03*
X331535Y325136D02*
D03*
Y319034D02*
D03*
X350354Y325136D02*
D03*
Y319034D02*
D03*
X303346Y192796D02*
D03*
Y198898D02*
D03*
X264417Y157304D02*
D03*
Y151201D02*
D03*
X374782Y111713D02*
D03*
Y105610D02*
D03*
Y147873D02*
D03*
Y141770D02*
D03*
Y177991D02*
D03*
Y184093D02*
D03*
Y221112D02*
D03*
Y215010D02*
D03*
X212901Y327679D02*
D03*
Y321577D02*
D03*
X5906Y161024D02*
D03*
Y154921D02*
D03*
X-9252Y161024D02*
D03*
Y154921D02*
D03*
X-24433Y161024D02*
D03*
Y154921D02*
D03*
X11811Y129035D02*
D03*
Y122933D02*
D03*
X212901Y340629D02*
D03*
Y334527D02*
D03*
X-3347Y129035D02*
D03*
Y122933D02*
D03*
X-18458D02*
D03*
Y129035D02*
D03*
X11811Y154921D02*
D03*
Y161024D02*
D03*
X-3347Y154921D02*
D03*
Y161024D02*
D03*
X-18458Y154921D02*
D03*
Y161024D02*
D03*
D30*
X383119Y324211D02*
D03*
X389221D02*
D03*
X383119Y338625D02*
D03*
X389221D02*
D03*
X389193Y366827D02*
D03*
X383091D02*
D03*
X389193Y352754D02*
D03*
X383091D02*
D03*
X401949Y366827D02*
D03*
X395847D02*
D03*
X401949Y352754D02*
D03*
X395847D02*
D03*
X395875Y338625D02*
D03*
X401977D02*
D03*
Y324211D02*
D03*
X395875D02*
D03*
X359476Y297397D02*
D03*
X353373D02*
D03*
X347966Y279037D02*
D03*
X341863D02*
D03*
X326198Y146028D02*
D03*
X332300D02*
D03*
X309390Y146029D02*
D03*
X315493D02*
D03*
X224405Y20959D02*
D03*
X218302D02*
D03*
X224405Y48228D02*
D03*
X218302D02*
D03*
X224405Y74528D02*
D03*
X218302D02*
D03*
X224405Y100559D02*
D03*
X218302D02*
D03*
X156421Y114398D02*
D03*
X150319D02*
D03*
X156421Y106421D02*
D03*
X150319D02*
D03*
X156421Y98449D02*
D03*
X150319D02*
D03*
X156421Y90476D02*
D03*
X150319D02*
D03*
X156421Y82500D02*
D03*
X150319D02*
D03*
X156421Y74528D02*
D03*
X150319D02*
D03*
X156421Y65165D02*
D03*
X150319D02*
D03*
X156421Y57189D02*
D03*
X150319D02*
D03*
X156421Y49216D02*
D03*
X150319D02*
D03*
X156421Y41240D02*
D03*
X150319D02*
D03*
X156421Y33268D02*
D03*
X150319D02*
D03*
X156421Y25295D02*
D03*
X150319D02*
D03*
X229876Y353554D02*
D03*
X235978D02*
D03*
X453051Y219500D02*
D03*
X446949D02*
D03*
X453051Y183334D02*
D03*
X446949D02*
D03*
X453051Y147168D02*
D03*
X446949D02*
D03*
X453051Y111002D02*
D03*
X446949D02*
D03*
X456791D02*
D03*
X462894D02*
D03*
X456791Y147168D02*
D03*
X462894D02*
D03*
X456791Y183334D02*
D03*
X462894D02*
D03*
X456791Y219500D02*
D03*
X462894D02*
D03*
X320190Y287297D02*
D03*
X314087D02*
D03*
X320190Y267584D02*
D03*
X314087D02*
D03*
X117217Y103079D02*
D03*
X123319D02*
D03*
X107571D02*
D03*
X101469D02*
D03*
X62697Y102461D02*
D03*
X56595D02*
D03*
X62697Y109252D02*
D03*
X56595D02*
D03*
X62697Y278740D02*
D03*
X56595D02*
D03*
X62697Y285138D02*
D03*
X56595D02*
D03*
X117217Y112429D02*
D03*
X123319D02*
D03*
X117217Y54063D02*
D03*
X123319D02*
D03*
X107571Y112429D02*
D03*
X101469D02*
D03*
X107571Y54063D02*
D03*
X101469D02*
D03*
X165209Y365954D02*
D03*
X159106D02*
D03*
X172539Y331315D02*
D03*
X166437D02*
D03*
X172598Y325496D02*
D03*
X166496D02*
D03*
X306512Y287297D02*
D03*
X300410D02*
D03*
X306512Y267584D02*
D03*
X300410D02*
D03*
X370401Y260730D02*
D03*
X364299D02*
D03*
X231338Y312298D02*
D03*
X225236D02*
D03*
X307874Y351676D02*
D03*
X301772D02*
D03*
X310000Y326081D02*
D03*
X303898D02*
D03*
X276378Y157529D02*
D03*
X282480D02*
D03*
X107571Y63315D02*
D03*
X101469D02*
D03*
X117217D02*
D03*
X123319D02*
D03*
D31*
X376457Y360331D02*
D03*
Y367811D02*
D03*
X368189Y364071D02*
D03*
X376457Y346258D02*
D03*
Y353738D02*
D03*
X368189Y349998D02*
D03*
Y336027D02*
D03*
X376457Y332287D02*
D03*
Y339767D02*
D03*
X368217Y321809D02*
D03*
X376485Y318069D02*
D03*
Y325550D02*
D03*
X274266Y301743D02*
D03*
Y309224D02*
D03*
X265998Y305483D02*
D03*
X265427Y323188D02*
D03*
Y315708D02*
D03*
X273695Y319448D02*
D03*
X274266Y341586D02*
D03*
Y349066D02*
D03*
X265998Y345326D02*
D03*
X265427Y363042D02*
D03*
Y355562D02*
D03*
X273695Y359302D02*
D03*
X249847Y316338D02*
D03*
Y308857D02*
D03*
X258115Y312598D02*
D03*
X249847Y356153D02*
D03*
Y348672D02*
D03*
X258115Y352413D02*
D03*
D32*
X508946Y285741D02*
D03*
Y280033D02*
D03*
Y291450D02*
D03*
X498338Y285741D02*
D03*
Y280033D02*
D03*
Y291450D02*
D03*
X503642Y285741D02*
D03*
Y280033D02*
D03*
Y291450D02*
D03*
X508946Y331199D02*
D03*
Y325490D02*
D03*
Y336908D02*
D03*
X503642Y331199D02*
D03*
Y325490D02*
D03*
Y336908D02*
D03*
X498338Y331199D02*
D03*
Y325490D02*
D03*
Y336908D02*
D03*
D33*
X446496Y334634D02*
D03*
X451496D02*
D03*
X456496D02*
D03*
X461496D02*
D03*
X466496D02*
D03*
X471496D02*
D03*
X476496D02*
D03*
X481496D02*
D03*
X446496Y353532D02*
D03*
X451496D02*
D03*
X456496D02*
D03*
X461496D02*
D03*
X466496D02*
D03*
X471496D02*
D03*
X476496D02*
D03*
X481496D02*
D03*
X447067Y281378D02*
D03*
X452067D02*
D03*
X457067D02*
D03*
X462067D02*
D03*
X467067D02*
D03*
X472067D02*
D03*
X477067D02*
D03*
X482067D02*
D03*
X447067Y300276D02*
D03*
X452067D02*
D03*
X457067D02*
D03*
X462067D02*
D03*
X467067D02*
D03*
X472067D02*
D03*
X477067D02*
D03*
X482067D02*
D03*
X325354Y334452D02*
D03*
X330354D02*
D03*
X340354D02*
D03*
X350354D02*
D03*
X355354D02*
D03*
X325354Y353350D02*
D03*
X330354D02*
D03*
X335354D02*
D03*
X340354D02*
D03*
X345354D02*
D03*
X350354D02*
D03*
X355354D02*
D03*
X345354Y334452D02*
D03*
X335354D02*
D03*
X219901Y321731D02*
D03*
X224901D02*
D03*
X229901D02*
D03*
X234901D02*
D03*
X219901Y340629D02*
D03*
X224901D02*
D03*
X229901D02*
D03*
X234901D02*
D03*
D34*
X434984Y327362D02*
D03*
Y332362D02*
D03*
Y337362D02*
D03*
Y342362D02*
D03*
Y347362D02*
D03*
Y352362D02*
D03*
Y357362D02*
D03*
Y362362D02*
D03*
X416087Y327362D02*
D03*
Y332362D02*
D03*
Y337362D02*
D03*
Y342362D02*
D03*
Y347362D02*
D03*
Y352362D02*
D03*
Y357362D02*
D03*
Y362362D02*
D03*
X416682Y309137D02*
D03*
Y304137D02*
D03*
Y299137D02*
D03*
Y294137D02*
D03*
Y289137D02*
D03*
Y284137D02*
D03*
Y279137D02*
D03*
Y274137D02*
D03*
X435580Y309137D02*
D03*
Y304137D02*
D03*
Y299137D02*
D03*
Y294137D02*
D03*
Y289137D02*
D03*
Y284137D02*
D03*
Y279137D02*
D03*
Y274137D02*
D03*
X227653Y80146D02*
D03*
X208755D02*
D03*
Y85146D02*
D03*
Y90146D02*
D03*
Y95146D02*
D03*
X227653Y85146D02*
D03*
Y90146D02*
D03*
Y95146D02*
D03*
Y106524D02*
D03*
X208755D02*
D03*
Y111524D02*
D03*
Y116524D02*
D03*
Y121524D02*
D03*
X227653Y116524D02*
D03*
Y111524D02*
D03*
Y121524D02*
D03*
Y27390D02*
D03*
X208755D02*
D03*
Y42390D02*
D03*
Y37390D02*
D03*
Y32390D02*
D03*
X227653Y42390D02*
D03*
Y37390D02*
D03*
Y32390D02*
D03*
Y53768D02*
D03*
X208755Y68768D02*
D03*
Y63768D02*
D03*
Y58768D02*
D03*
Y53768D02*
D03*
X227653Y68768D02*
D03*
Y63768D02*
D03*
Y58768D02*
D03*
D35*
X228246Y146028D02*
D03*
X222538D02*
D03*
X233955D02*
D03*
X228246Y159165D02*
D03*
X222538D02*
D03*
X233955D02*
D03*
X228246Y172303D02*
D03*
X222538D02*
D03*
X233955D02*
D03*
X228453Y186265D02*
D03*
X222744D02*
D03*
X234161D02*
D03*
X228246Y198579D02*
D03*
X222538D02*
D03*
X233955D02*
D03*
X228246Y211717D02*
D03*
X222538D02*
D03*
X233955D02*
D03*
D36*
X356425Y290981D02*
D03*
Y288422D02*
D03*
Y285863D02*
D03*
Y283303D02*
D03*
Y280745D02*
D03*
Y278185D02*
D03*
Y275626D02*
D03*
Y273067D02*
D03*
Y270508D02*
D03*
Y267949D02*
D03*
X378275D02*
D03*
Y270508D02*
D03*
Y273067D02*
D03*
Y275626D02*
D03*
Y278185D02*
D03*
Y280745D02*
D03*
Y283303D02*
D03*
Y285863D02*
D03*
Y288422D02*
D03*
Y290981D02*
D03*
D37*
X367350Y279465D02*
D03*
D38*
X340246Y267170D02*
D03*
Y255752D02*
D03*
X183829Y237426D02*
D03*
Y226009D02*
D03*
Y148721D02*
D03*
Y160138D02*
D03*
X203445Y319587D02*
D03*
Y308170D02*
D03*
X387102Y251662D02*
D03*
Y263079D02*
D03*
X328120Y213235D02*
D03*
Y201818D02*
D03*
X324970Y168637D02*
D03*
Y157220D02*
D03*
X319291Y249567D02*
D03*
Y260985D02*
D03*
X329035Y249371D02*
D03*
Y260788D02*
D03*
X387598Y106709D02*
D03*
Y118126D02*
D03*
Y142874D02*
D03*
Y154292D02*
D03*
Y179040D02*
D03*
Y190457D02*
D03*
Y227488D02*
D03*
Y216071D02*
D03*
X391669Y302637D02*
D03*
Y291220D02*
D03*
D39*
X77230Y188686D02*
D03*
Y190261D02*
D03*
Y191835D02*
D03*
Y193410D02*
D03*
Y194985D02*
D03*
Y196560D02*
D03*
Y198135D02*
D03*
Y199709D02*
D03*
X54789Y188686D02*
D03*
Y190261D02*
D03*
Y191835D02*
D03*
Y193410D02*
D03*
Y194985D02*
D03*
Y196560D02*
D03*
Y198135D02*
D03*
Y199709D02*
D03*
D40*
X200620Y186020D02*
D03*
X209281D02*
D03*
X200619Y198442D02*
D03*
X209280D02*
D03*
X200619Y211640D02*
D03*
X209280D02*
D03*
X200619Y146063D02*
D03*
X209280D02*
D03*
X200619Y159168D02*
D03*
X209280D02*
D03*
X200619Y172306D02*
D03*
X209280D02*
D03*
X519298Y156710D02*
D03*
X527960D02*
D03*
X504450D02*
D03*
X513112D02*
D03*
D41*
X311539Y277242D02*
D03*
X320200Y280983D02*
D03*
Y273502D02*
D03*
X298397Y277242D02*
D03*
X307059Y280983D02*
D03*
Y273502D02*
D03*
D42*
X101469Y97882D02*
D03*
Y95323D02*
D03*
Y92764D02*
D03*
Y90205D02*
D03*
Y87646D02*
D03*
Y85087D02*
D03*
Y82528D02*
D03*
Y79969D02*
D03*
Y77409D02*
D03*
Y74850D02*
D03*
X123910Y97882D02*
D03*
Y95323D02*
D03*
Y92764D02*
D03*
Y90205D02*
D03*
Y87646D02*
D03*
Y85087D02*
D03*
Y82528D02*
D03*
Y79969D02*
D03*
Y77409D02*
D03*
Y74850D02*
D03*
X101469Y49161D02*
D03*
Y46602D02*
D03*
Y44043D02*
D03*
Y41484D02*
D03*
Y38925D02*
D03*
Y36366D02*
D03*
Y33807D02*
D03*
Y31248D02*
D03*
Y28689D02*
D03*
Y26130D02*
D03*
X123910Y49161D02*
D03*
Y46602D02*
D03*
Y44043D02*
D03*
Y41484D02*
D03*
Y38925D02*
D03*
Y36366D02*
D03*
Y33807D02*
D03*
Y31248D02*
D03*
Y28689D02*
D03*
Y26130D02*
D03*
X331890Y117457D02*
D03*
Y120016D02*
D03*
Y122575D02*
D03*
Y125134D02*
D03*
Y127693D02*
D03*
Y130252D02*
D03*
Y132811D02*
D03*
Y135370D02*
D03*
Y137929D02*
D03*
Y140489D02*
D03*
X309449Y117457D02*
D03*
Y120016D02*
D03*
Y122575D02*
D03*
Y125134D02*
D03*
Y127693D02*
D03*
Y130252D02*
D03*
Y132811D02*
D03*
Y135370D02*
D03*
Y137929D02*
D03*
Y140489D02*
D03*
D43*
X52165Y168248D02*
D03*
Y166279D02*
D03*
Y164311D02*
D03*
Y162343D02*
D03*
Y160374D02*
D03*
Y158405D02*
D03*
Y156437D02*
D03*
Y154469D02*
D03*
Y152500D02*
D03*
Y150531D02*
D03*
Y148563D02*
D03*
Y146595D02*
D03*
Y144626D02*
D03*
Y142657D02*
D03*
Y140689D02*
D03*
Y138721D02*
D03*
Y136752D02*
D03*
Y134783D02*
D03*
Y132815D02*
D03*
Y130847D02*
D03*
Y128878D02*
D03*
Y126909D02*
D03*
Y124941D02*
D03*
Y122972D02*
D03*
Y121004D02*
D03*
Y119035D02*
D03*
Y117067D02*
D03*
Y115098D02*
D03*
X81693Y168248D02*
D03*
Y166279D02*
D03*
Y164311D02*
D03*
Y162343D02*
D03*
Y160374D02*
D03*
Y158405D02*
D03*
Y156437D02*
D03*
Y154469D02*
D03*
Y152500D02*
D03*
Y150531D02*
D03*
Y148563D02*
D03*
Y146595D02*
D03*
Y144626D02*
D03*
Y142657D02*
D03*
Y140689D02*
D03*
Y138721D02*
D03*
Y136752D02*
D03*
Y134783D02*
D03*
Y132815D02*
D03*
Y130847D02*
D03*
Y128878D02*
D03*
Y126909D02*
D03*
Y124941D02*
D03*
Y122972D02*
D03*
Y121004D02*
D03*
Y119035D02*
D03*
Y117067D02*
D03*
Y115098D02*
D03*
X52165Y273425D02*
D03*
Y271457D02*
D03*
Y269488D02*
D03*
Y267520D02*
D03*
Y265551D02*
D03*
Y263583D02*
D03*
Y261614D02*
D03*
Y259646D02*
D03*
Y257677D02*
D03*
Y255709D02*
D03*
Y253740D02*
D03*
Y251772D02*
D03*
Y249803D02*
D03*
Y247835D02*
D03*
Y245866D02*
D03*
Y243898D02*
D03*
Y241929D02*
D03*
Y239961D02*
D03*
Y237992D02*
D03*
Y236024D02*
D03*
Y234055D02*
D03*
Y232087D02*
D03*
Y230118D02*
D03*
Y228150D02*
D03*
Y226181D02*
D03*
Y224213D02*
D03*
Y222244D02*
D03*
Y220276D02*
D03*
X81693Y273425D02*
D03*
Y271457D02*
D03*
Y269488D02*
D03*
Y267520D02*
D03*
Y265551D02*
D03*
Y263583D02*
D03*
Y261614D02*
D03*
Y259646D02*
D03*
Y257677D02*
D03*
Y255709D02*
D03*
Y253740D02*
D03*
Y251772D02*
D03*
Y249803D02*
D03*
Y247835D02*
D03*
Y245866D02*
D03*
Y243898D02*
D03*
Y241929D02*
D03*
Y239961D02*
D03*
Y237992D02*
D03*
Y236024D02*
D03*
Y234055D02*
D03*
Y232087D02*
D03*
Y230118D02*
D03*
Y228150D02*
D03*
Y226181D02*
D03*
Y224213D02*
D03*
Y222244D02*
D03*
Y220276D02*
D03*
D44*
X299705Y298306D02*
D03*
X309941D02*
D03*
X300818Y307452D02*
D03*
X311055D02*
D03*
X254412Y141815D02*
D03*
X264648D02*
D03*
D45*
X456890Y126670D02*
D03*
Y162836D02*
D03*
Y199002D02*
D03*
Y235168D02*
D03*
D46*
X461811Y119190D02*
D03*
X459842D02*
D03*
X457874D02*
D03*
X455905D02*
D03*
X453937D02*
D03*
X451968D02*
D03*
Y134150D02*
D03*
X453937D02*
D03*
X455905D02*
D03*
X457874D02*
D03*
X459842D02*
D03*
X461811D02*
D03*
Y170316D02*
D03*
X459842D02*
D03*
X457874D02*
D03*
X455905D02*
D03*
X453937D02*
D03*
X451968D02*
D03*
Y155355D02*
D03*
X453937D02*
D03*
X455905D02*
D03*
X457874D02*
D03*
X459842D02*
D03*
X461811D02*
D03*
Y191521D02*
D03*
X459842D02*
D03*
X457874D02*
D03*
X455905D02*
D03*
X453937D02*
D03*
X451968D02*
D03*
Y206482D02*
D03*
X453937D02*
D03*
X455905D02*
D03*
X457874D02*
D03*
X459842D02*
D03*
X461811D02*
D03*
Y227687D02*
D03*
X459842D02*
D03*
X457874D02*
D03*
X455905D02*
D03*
X453937D02*
D03*
X451968D02*
D03*
Y242648D02*
D03*
X453937D02*
D03*
X455905D02*
D03*
X457874D02*
D03*
X459842D02*
D03*
X461811D02*
D03*
D47*
X362633Y251072D02*
D03*
X351216D02*
D03*
X310434Y359323D02*
D03*
X299016D02*
D03*
X311645Y316475D02*
D03*
X300228D02*
D03*
X302953Y183052D02*
D03*
X291535D02*
D03*
X277382Y149528D02*
D03*
X288799D02*
D03*
X277382Y140867D02*
D03*
X288799D02*
D03*
X334385Y295783D02*
D03*
X345802D02*
D03*
D48*
X8366Y341560D02*
D03*
Y360379D02*
D03*
D49*
X16083Y315543D02*
D03*
X34902D02*
D03*
X34902Y301092D02*
D03*
X16083D02*
D03*
D50*
X152461Y341811D02*
D03*
Y358268D02*
D03*
X172461Y341732D02*
D03*
Y358268D02*
D03*
D51*
X180807Y311417D02*
D03*
Y309449D02*
D03*
Y305512D02*
D03*
Y303543D02*
D03*
Y301575D02*
D03*
Y299606D02*
D03*
Y297638D02*
D03*
Y295669D02*
D03*
Y293701D02*
D03*
Y291732D02*
D03*
Y289764D02*
D03*
X148327D02*
D03*
Y291732D02*
D03*
Y293701D02*
D03*
Y295669D02*
D03*
Y297638D02*
D03*
Y299606D02*
D03*
Y301575D02*
D03*
Y303543D02*
D03*
Y305512D02*
D03*
Y307480D02*
D03*
Y309449D02*
D03*
Y311417D02*
D03*
X180807Y307480D02*
D03*
D52*
X175394Y284350D02*
D03*
X173425D02*
D03*
X171457D02*
D03*
X169488D02*
D03*
X167520D02*
D03*
X165551D02*
D03*
X163583D02*
D03*
X161614D02*
D03*
X159646D02*
D03*
X157677D02*
D03*
X155709D02*
D03*
X153740D02*
D03*
X155709Y316831D02*
D03*
X159646D02*
D03*
X161614D02*
D03*
X163583D02*
D03*
X165551D02*
D03*
X167520D02*
D03*
X169488D02*
D03*
X171457D02*
D03*
X173425D02*
D03*
X175394D02*
D03*
X153740D02*
D03*
X157677D02*
D03*
D53*
X312107Y344590D02*
D03*
Y340850D02*
D03*
Y337109D02*
D03*
X301792D02*
D03*
Y340850D02*
D03*
Y344590D02*
D03*
X316368Y185971D02*
D03*
Y182231D02*
D03*
Y178491D02*
D03*
D54*
X326683D02*
D03*
Y185971D02*
D03*
D55*
X275886Y183544D02*
D03*
X273327D02*
D03*
X270768D02*
D03*
X268209D02*
D03*
X275886Y166221D02*
D03*
X273327D02*
D03*
X270768D02*
D03*
X268209D02*
D03*
D56*
X365122Y123133D02*
D03*
Y159298D02*
D03*
Y195463D02*
D03*
Y232495D02*
D03*
D57*
X357445Y130022D02*
D03*
Y128054D02*
D03*
Y126085D02*
D03*
Y124117D02*
D03*
Y122148D02*
D03*
Y120180D02*
D03*
Y118211D02*
D03*
Y116243D02*
D03*
X372799Y130022D02*
D03*
Y128054D02*
D03*
Y126085D02*
D03*
Y124117D02*
D03*
Y122148D02*
D03*
Y120180D02*
D03*
Y118211D02*
D03*
Y116243D02*
D03*
X357445Y166188D02*
D03*
Y164219D02*
D03*
Y162251D02*
D03*
Y160282D02*
D03*
Y158314D02*
D03*
Y156345D02*
D03*
Y154377D02*
D03*
Y152408D02*
D03*
X372799Y166188D02*
D03*
Y164219D02*
D03*
Y162251D02*
D03*
Y160282D02*
D03*
Y158314D02*
D03*
Y156345D02*
D03*
Y154377D02*
D03*
Y152408D02*
D03*
Y188574D02*
D03*
Y190542D02*
D03*
Y192510D02*
D03*
Y194479D02*
D03*
Y196448D02*
D03*
Y198416D02*
D03*
Y200384D02*
D03*
Y202353D02*
D03*
X357445Y188574D02*
D03*
Y190542D02*
D03*
Y192510D02*
D03*
Y194479D02*
D03*
Y196448D02*
D03*
Y198416D02*
D03*
Y200384D02*
D03*
Y202353D02*
D03*
X372799Y225605D02*
D03*
Y227573D02*
D03*
Y229542D02*
D03*
Y231510D02*
D03*
Y233479D02*
D03*
Y235448D02*
D03*
Y237416D02*
D03*
Y239385D02*
D03*
X357445Y225605D02*
D03*
Y227573D02*
D03*
Y229542D02*
D03*
Y231510D02*
D03*
Y233479D02*
D03*
Y235448D02*
D03*
Y237416D02*
D03*
Y239385D02*
D03*
D58*
X316368Y157292D02*
D03*
Y167528D02*
D03*
D59*
X286516Y239548D02*
D03*
Y208052D02*
D03*
D60*
X221940Y286181D02*
D03*
X251940D02*
D03*
Y246417D02*
D03*
X231941D02*
D03*
X221940D02*
D03*
D61*
X257921Y215221D02*
D03*
Y230024D02*
D03*
M02*
